<svg xmlns="http://www.w3.org/2000/svg" width="553" height="691" fill="none" viewBox="0 0 553 691"><path fill="#FFDEB1" fill-rule="evenodd" d="M261.337 274.821C237.154 273.089 203.998 277.883 197.004 305.46C194.835 315.494 190.561 319.899 183.38 326.462C137.801 384.805 296.826 394.612 305.001 337.719C322.223 343.992 340.971 345.321 358.204 351.661C367.55 355.114 376.025 360.563 384.146 366.259C417.263 389.783 449.912 413.979 482.911 437.672C470.141 443.552 445.863 466.006 455.756 481.094C458.06 484.034 461.481 486.06 464.507 488.208L466.103 489.347C469.536 491.808 475.315 496.001 478.51 498.28L479.099 498.709C479.331 498.876 479.591 499.064 479.827 499.232C456.782 532.927 429.812 564.018 399.896 591.776C397.349 594.144 398.392 599.44 402.079 600.056L406.471 600.701C420.654 602.767 435.105 604.626 449.397 603.504C463.316 601.99 471.704 589.667 481.219 580.741C500.22 561.317 517.908 540.598 534.019 518.711L534.354 518.249C539.369 511.396 546.024 504.393 546.511 495.544C547.399 492.883 545.062 489.071 542.815 487.257L542.048 486.151C530 468.821 516.365 452.11 499.282 439.56C499.345 437.69 498.481 435.724 496.769 434.485L425.374 382.813V382.813C406.953 370.135 389.831 355.235 369.864 344.997C349.447 335.165 326.406 334.779 305.483 326.574C305.04 320.66 292.608 319.151 293.001 320.064C279.884 312.146 273.131 302.725 271.049 294.067C268.966 285.408 271.554 277.512 261.337 274.821ZM84.7822 460.336C62.7058 427.115 41.6629 463.871 32.4722 486.024C21.6133 516.341 44.1008 553.633 58.6279 579.769C63.9786 587.027 71.0159 602.336 80.4474 603.446C104.208 603.349 128.003 601.675 151.778 601.177C167.13 597.368 145.591 574.296 130.712 582.723C126.204 584.41 123.952 589.528 119.556 591.17C117.955 591.512 117.844 590.798 117.193 589.203L117.1 588.98C115.939 586.22 114.813 583.445 113.669 580.677C103.989 556.838 93.7558 533.208 83.5807 509.588C81.4069 504.46 84.4555 500.235 88.4185 497.182C91.4531 494.685 104.498 488.586 92.2071 491.27C96.94 480.284 91.253 469.133 84.7822 460.336ZM139.592 414.86C137.466 414.594 134.737 416.737 134.409 418.812C131.698 436.015 134.719 453.023 138.34 469.851L139.007 472.933C140.343 479.071 141.835 485.329 145.167 490.708C148.566 496.199 153.709 500.337 159.614 502.852C178.554 510.401 202.11 502.936 216.044 488.823C224.958 476.612 217.121 461.272 215.625 447.889C217.039 444.282 217.561 440.111 218.378 436.393L218.478 435.949L221.655 422.078C222.355 419.019 220.126 414.833 216.463 415.253C190.92 418.183 165.103 418.051 139.592 414.86Z" clip-rule="evenodd"/><path fill="#000" fill-rule="evenodd" d="M50.3888 455.989C50.4654 455.647 50.0553 455.385 49.7894 455.643C45.2959 459.974 42.1229 465.509 38.639 470.639C35.3218 475.525 31.7117 480.222 29.2373 485.613C26.9387 490.625 25.4559 495.71 25.0142 501.218C24.5725 506.686 25.1449 512.167 26.1094 517.553C28.0069 528.164 32.0632 538.211 36.5162 547.97C40.8455 557.457 45.7374 566.674 50.9034 575.723L52.7548 578.954C55.0132 582.888 57.2964 586.814 59.7409 590.624C62.7832 595.366 65.5595 600.261 69.5708 604.219C72.4192 607.036 77.7871 604.219 76.4891 600.193C75.9257 598.44 75.484 596.79 74.6097 595.163C73.9471 593.923 73.199 592.72 72.4959 591.499C71.0897 589.056 69.697 586.604 68.2908 584.161C65.3387 579.027 62.2288 573.987 59.3038 568.835C54.2288 559.901 49.4378 550.8 45.2012 541.434L44.7026 540.329C40.8044 531.655 37.1104 522.671 35.3984 513.289C33.5956 503.404 35.2091 494.087 38.7201 484.797C40.5364 479.992 42.5781 475.295 44.7009 470.616L45.109 469.723C47.1591 465.257 49.3325 460.815 50.3888 455.989ZM268.597 285.011C268.557 284.835 268.259 284.822 268.232 285.011C266.97 293.405 269.778 302.284 274.353 309.266C276.85 313.079 279.928 316.523 283.556 319.291L283.839 319.504C287.545 322.275 292.553 324.951 297.154 323.154C297.298 323.099 297.433 323.036 297.56 322.965C297.041 323.767 296.564 324.609 296.077 325.452C294.63 327.963 293.332 330.564 291.921 333.097C289.397 337.627 286.391 341.679 282.592 345.227C267.399 359.409 246.066 362.78 226.031 362.618L224.616 362.605C215.816 362.543 204.306 362.992 197.512 356.622C193.862 353.201 191.851 348.337 190.035 343.771C188.25 339.295 187.029 334.675 185.546 330.122C188.642 328 191.482 325.408 193.713 322.378C196.038 319.223 197.796 315.671 198.81 311.88L198.96 311.314C199.744 308.291 200.533 304.292 199.27 301.436C199.126 301.107 198.585 301.13 198.432 301.436C197.751 302.802 197.62 304.344 197.201 305.804C196.715 307.504 196.165 309.194 195.439 310.803C194.037 313.922 192.185 316.888 189.963 319.484C188.129 321.634 186.141 323.609 183.869 325.268C182.531 322.955 179.426 322.644 176.825 323.406C173.339 324.424 169.901 325.732 166.54 327.113L165.868 327.391C162.547 328.77 158.792 330.037 155.682 331.916C153.794 332.818 151.982 333.724 150.278 334.526C141.79 338.514 133.426 342.746 125.101 347.06L123.317 347.985C119.829 349.802 116.372 351.636 113.339 354.17C110.251 356.748 107.854 360.273 105.6 363.577C100.449 371.131 95.5945 378.902 90.5016 386.497C80.2165 401.823 69.9315 417.148 59.5878 432.438C57.0864 436.139 54.265 439.749 52.0204 443.608C49.8706 447.295 49.9292 451.081 50.3484 455.196L50.4269 455.952C51.2305 463.501 52.6123 470.751 56.8475 477.224C63.5134 487.402 74.0148 493.74 85.1246 498.103C83.768 499.113 82.4926 500.204 80.8745 500.898C78.3867 501.962 75.732 502.512 73.0413 502.732C70.1703 502.963 66.9343 502.246 64.6086 504.197C63.6757 504.977 63.6486 506.852 64.6086 507.632C66.8445 509.457 69.7345 508.934 72.4589 508.628L72.6221 508.61C75.1506 508.331 77.643 507.862 80.0182 506.933C80.6041 506.703 81.1855 506.447 81.7489 506.163C81.7309 506.212 81.7219 506.271 81.7309 506.334C82.1367 509.439 83.0162 512.376 83.945 515.344L84.5343 517.224C85.7331 521.064 86.941 524.896 88.1849 528.727C90.5522 536.021 93.1306 543.246 95.7183 550.462L97.9516 556.688C100.246 563.076 102.569 569.455 105.136 575.736C106.722 579.612 108.318 583.489 109.909 587.361C111.464 591.143 112.757 595.226 114.686 598.828C116.273 601.794 120.6 599.67 119.906 596.624C118.995 592.626 117.278 588.659 115.966 584.769C114.632 580.82 113.325 576.867 111.969 572.927C109.609 566.083 106.996 559.331 104.37 552.584L101.767 545.896C99.213 539.344 96.6294 532.797 93.8683 526.33L93.5666 525.621C90.6977 518.855 87.7362 511.248 82.5241 506.005C82.4565 505.933 82.3618 505.897 82.2672 505.888C83.5472 505.194 84.7461 504.351 85.8007 503.354L85.8521 503.303C86.269 502.861 87.9912 500.686 88.5455 499.383C89.2667 499.64 89.9878 499.888 90.7089 500.131C91.9663 500.555 93.0075 500.249 93.7421 499.577L95.1415 500.443C96.6376 501.357 98.2462 502.224 99.8988 502.268C101.981 502.322 103.617 501.173 104.73 499.478C105.731 497.963 106.326 496.327 107.592 494.97C108.837 493.637 110.279 492.511 111.752 491.437L113.488 490.174C116.672 487.849 119.758 485.501 122.321 482.431C123.61 480.88 125.337 479.041 126.121 477.179C126.274 476.819 126.369 476.481 126.387 476.152C126.558 477.315 126.734 478.482 126.909 479.645C129.37 496.012 131.358 512.491 131.993 529.043C132.304 537.205 132.444 545.378 132.079 553.545C131.899 557.625 131.601 561.7 131.191 565.765C130.988 567.803 130.776 569.836 130.529 571.864L130.471 572.334C130.4 572.955 130.353 573.557 130.407 574.127C128.424 575.104 127.284 577.575 126.49 579.504C125.886 580.974 126.355 582.402 127.329 583.435C126.166 584.494 125.129 585.738 124.259 587.162C124.084 587.451 124.462 587.676 124.688 587.496C126.116 586.36 127.653 585.427 129.258 584.71C130.1 585.03 131.02 585.116 131.867 584.882C132.787 584.629 133.58 584.016 134.152 583.237C138.709 582.488 143.446 583.403 147.547 586.256C148.399 586.851 149.17 587.523 149.904 588.253C150.031 588.38 150.161 588.542 150.292 588.699L149.397 589.043C149.027 589.184 148.722 589.294 148.606 589.317C147.825 589.476 147.032 589.561 146.239 589.63L145.05 589.727C140.485 590.106 135.933 590.232 131.687 592.143C130.795 592.544 131.106 593.919 131.948 594.149C135.049 594.99 138.125 594.925 141.281 594.7L141.958 594.649C144.893 594.424 148.043 594.438 150.905 593.626C150.22 595.501 151.153 597.949 154.015 598.332C162.61 599.477 171.259 598.936 179.863 598.179C188.552 597.412 197.237 596.687 205.949 596.232C234.13 594.749 262.354 595.034 290.561 595.436L306.5 595.667C319.212 595.847 331.925 595.986 344.636 595.889L350.586 595.833C353.101 595.809 355.617 595.778 358.129 595.704L359.635 595.655C362.628 595.546 366.589 595.997 369.19 594.225C371.335 592.765 371.813 590.088 370.52 587.929C370.145 587.307 369.632 586.752 369.095 586.211C367.996 576.814 367.378 567.37 366.747 557.931C364.557 524.901 365.837 492.041 370.889 459.343C384.446 463.486 397.796 468.683 410.804 474.259C417.839 477.274 424.838 480.402 431.757 483.684C438.071 486.681 444.413 490.427 451.16 492.374C451.773 492.918 452.63 493.178 453.391 492.936L453.49 492.902H453.494C454.188 493.064 454.959 492.965 455.716 492.509C455.869 492.417 456.023 492.323 456.176 492.227L456.406 492.081C458.781 490.585 461.17 488.741 462.851 486.487C464.893 488.381 467.087 490.116 469.246 491.874C471.59 493.785 473.925 495.705 476.241 497.643C477.161 498.414 478.175 499.149 478.986 500.037L479.104 500.167C479.123 500.188 479.141 500.21 479.157 500.231C475.646 502.503 472.573 505.951 469.819 508.948C466.862 512.165 464.007 515.485 461.175 518.817L458.434 522.05C439.051 544.941 419.47 568.661 394.375 585.486C390.409 588.145 394.191 594.622 398.13 591.904C405.584 586.77 412.638 581.068 419.412 575.068C431.284 564.562 441.965 552.775 451.966 540.492C457.028 534.275 461.94 527.907 466.754 521.497L468.388 519.323C470.565 516.423 472.73 513.514 474.804 510.539L475.237 509.916C477.056 507.292 478.99 504.343 480.162 501.322C480.613 501.777 481.122 502.16 481.866 502.448C483.137 502.944 484.696 501.903 485.007 500.663C485.765 497.657 483.151 495.867 481.023 494.271C478.441 492.343 475.809 490.481 473.172 488.628L472.23 487.963C468.933 485.624 465.619 483.224 462.026 481.376C461.918 481.232 461.787 481.096 461.638 480.979C461.467 480.844 461.3 480.713 461.129 480.583C465.42 473.623 470.125 466.934 475.376 460.614C479.324 455.859 483.516 451.32 487.951 447.02L489.943 445.091C492.956 442.18 496.09 439.227 499.435 436.698L500.482 437.885C501.88 439.466 503.292 441.036 504.784 442.521C507.723 445.442 510.621 448.422 513.505 451.401C518.296 456.358 522.924 461.467 527.537 466.584L529.844 469.142C534.648 474.474 539.795 479.708 544.162 485.405L544.38 485.694C546.287 488.251 547.644 491.081 546.758 494.33C545.904 497.462 543.871 500.24 542.119 502.944L541.945 503.215C534.792 514.357 527.13 525.216 518.923 535.606C502.486 556.417 483.736 576.142 461.364 590.611C458.263 592.617 461.161 597.602 464.266 595.573C477.332 587.032 489.334 576.773 500.376 565.756C510.513 555.646 519.698 544.512 528.307 533.086C532.503 527.51 536.523 521.817 540.376 515.998C544.113 510.35 548.435 504.54 551.144 498.311C552.563 495.034 553.086 491.486 551.924 488.033C550.857 484.86 548.748 482.225 546.554 479.746L546.348 479.514C541.305 473.848 536.171 468.25 530.993 462.706C525.796 457.144 520.361 451.78 514.813 446.573C510.454 442.476 505.911 438.865 501.053 435.521C501.49 435.21 501.927 434.913 502.373 434.624C503.73 433.741 504.072 431.852 502.882 430.653C499.633 427.371 495.887 424.518 492.363 421.53C489.05 418.722 485.738 415.909 482.425 413.096C475.682 407.381 468.94 401.661 462.197 395.941C450.087 385.668 438.044 375.323 425.974 365.006C420.941 360.705 415.862 356.457 410.795 352.197L401.793 344.621V344.621L397.39 340.924C395.134 339.035 392.83 337.166 390.265 335.725C384.229 332.334 376.972 330.867 370.322 329.071L369.88 328.95C362.42 326.909 354.921 324.988 347.38 323.275C339.831 321.562 332.25 320.003 324.638 318.592C317.796 317.321 310.792 316.23 303.815 316.068C302.085 315.41 299.912 315.18 298.209 315.883C297.506 316.176 296.771 316.604 296.117 317.145C292.706 315.946 289.339 315.374 286.152 313.345C282.97 311.322 280.153 308.662 277.783 305.732C272.884 299.665 270.319 292.498 268.597 285.011ZM190.17 490.459C192.874 490.27 195.308 491.387 197.724 492.577C196.363 493.168 195.002 493.753 193.641 494.335L184.582 498.202V498.202C181.589 499.478 178.42 500.587 175.576 502.16C175.374 502.272 175.211 502.408 175.09 502.566C172.133 500.673 169.005 498.983 166.008 497.184C165.323 496.774 164.633 496.363 163.944 495.953C167.513 497.148 171.173 497.747 175.049 496.625C180.219 495.133 184.708 490.842 190.17 490.459ZM182.761 481.389L183.246 481.059C185.869 479.26 188.999 476.947 192.185 478.563C193.686 479.325 194.916 480.556 196.394 481.376C197.882 482.205 199.518 482.841 201.176 483.224C203.93 483.86 207.085 483.954 210.046 483.341L210.001 487.344V487.344C207.761 488.268 205.535 489.215 203.308 490.17C201.863 489.676 200.472 489.082 199.009 488.431L198.022 487.988C195.205 486.721 192.361 485.875 189.246 486.276C183.383 487.028 178.952 491.387 173.345 492.838C166.472 494.624 160.271 489.494 153.776 488.227C152.705 488.016 151.601 487.893 150.504 487.874L150.139 487.871L149.976 487.777C148.579 486.956 146.488 486.172 145.514 484.793C144.455 483.296 144.365 480.79 144.018 479.032C143.982 478.856 143.946 478.676 143.914 478.5C144.527 478.5 145.149 478.531 145.78 478.649C147.764 479.014 149.629 479.717 151.477 480.502C154.97 481.984 158.387 483.675 162.064 484.662C165.665 485.631 169.429 486.091 173.138 485.554C176.757 485.031 179.763 483.4 182.761 481.389ZM182.196 467.316L182.739 466.967C184.172 466.053 185.815 465.106 187.57 465.442C189.138 465.744 190.486 466.992 191.851 467.763C194.849 469.454 198.211 470.378 201.641 470.612C204.494 470.806 207.455 470.459 210.2 469.611L210.105 478.474V478.474C209.1 478.793 208.059 479.023 206.963 479.104C203.637 479.352 200.392 478.554 197.602 476.72L196.191 475.783C193.776 474.196 191.51 472.936 188.313 473.515C185.149 474.092 182.495 476.12 179.908 477.887L179.483 478.172C176.512 480.134 173.501 481.4 169.857 481.43C165.922 481.461 162.033 480.366 158.369 479.018C154.731 477.685 151.274 476.084 147.385 475.593C146.195 475.444 144.744 475.399 143.378 475.633C143.198 474.628 143.027 473.628 142.864 472.622C142.513 470.463 142.211 468.309 141.949 466.15C148.85 464.292 155.223 470.301 161.632 472.154C165.35 473.226 169.397 473.213 173.116 472.176C176.556 471.216 179.261 469.223 182.196 467.316ZM182.179 452.393C183.653 452.109 185.109 452.789 186.362 453.488C189.557 455.26 192.316 457.725 195.935 458.658C200.591 459.857 205.683 458.825 210.308 456.864C210.29 459.6 210.267 462.336 210.245 465.072C209.375 465.402 208.482 465.667 207.572 465.879C204.336 466.618 200.906 466.519 197.72 465.586C194.47 464.635 191.978 462.066 188.719 461.263C185.387 460.44 182.246 462.042 179.561 463.862L178.752 464.414C175.683 466.497 172.706 468.307 168.865 468.66C164.805 469.034 161.276 467.763 157.647 466.078L156.803 465.687C152.209 463.577 146.246 461.175 141.661 463.576C141.3 460.168 141.039 456.761 140.863 453.348C141.494 453.114 142.148 452.943 142.9 452.938C144.699 452.93 146.587 453.497 148.264 454.087C151.928 455.381 155.34 457.31 158.968 458.694C162.407 460.01 166.215 460.695 169.884 460.105C173.282 459.56 175.833 457.784 178.182 455.35L178.523 454.99C179.552 453.894 180.654 452.689 182.179 452.393ZM179.489 439.74C181.188 438.844 183.256 438.009 185.222 438.271C187.096 438.518 188.346 439.79 189.501 441.15L190.126 441.894C192.191 444.338 194.224 446.393 197.409 447.398C200.708 448.435 204.205 448.029 207.275 446.51C208.365 445.969 209.379 445.298 210.398 444.635L210.344 451.824V451.824C208.307 452.838 206.233 453.754 203.957 454.308C199.757 455.332 196.187 454.574 192.595 452.257L192.218 452.012C189.512 450.235 186.738 448.119 183.396 447.921C180.135 447.726 177.687 449.534 175.539 451.747L175.288 452.01C172.579 454.867 169.844 456.26 165.814 455.931C161.908 455.612 158.252 453.887 154.673 452.401L154.348 452.266C151.076 450.923 147.304 449.539 143.712 450.053C142.851 450.175 141.738 450.441 140.746 450.905C140.602 447.542 140.534 444.175 140.521 440.804C142.562 439.033 145.74 438.739 148.295 439.465C152.298 440.601 155.574 443.531 159.396 445.122C162.785 446.533 166.319 446.848 169.776 445.514C173.345 444.135 176.144 441.507 179.489 439.74ZM140.746 425.578C146.727 425.785 152.577 429.675 158.287 431.158C164.666 432.813 169.873 430.557 175.555 428.051L176.289 427.728C179.205 426.448 182.337 425.298 185.569 425.821C188.719 426.335 191.504 428.079 194.213 429.657L194.732 429.956C199.667 432.765 204.691 434.688 210.452 434.209C210.42 436.017 210.434 437.82 210.429 439.587C209.483 440.128 208.573 440.741 207.707 441.3L207.397 441.497C204.65 443.214 201.819 444.343 198.544 443.283C195.38 442.255 193.893 439.501 191.721 437.234C189.724 435.151 187.119 433.885 184.198 434.007C181.057 434.132 178.087 435.517 175.491 437.207C172.895 438.897 170.384 441.083 167.347 441.931C160.532 443.823 154.695 436.616 148.25 435.494C145.546 435.021 142.562 435.62 140.521 437.252C140.543 433.366 140.629 429.472 140.746 425.578ZM192.225 423.946C193.068 423.977 193.911 424.013 194.754 424.05C197.873 424.185 200.992 424.338 204.111 424.514C206.269 424.631 208.924 425.294 211.042 424.635C211.096 424.852 211.169 425.06 211.263 425.262C210.943 426.858 210.745 428.507 210.623 430.175C208.667 430.387 206.68 430.315 204.751 429.914C200.122 428.954 196.363 426.033 192.225 423.946ZM140.836 422.607C152.225 423.392 163.702 423.122 175.109 423.368L176.478 423.4C176.532 423.4 176.586 423.405 176.64 423.405C175.332 423.912 174.034 424.493 172.74 425.084L171.448 425.677C168.392 427.083 165.282 428.232 161.862 427.985C158.197 427.719 154.745 426.223 151.32 425.014C148.052 423.86 144.289 423.085 140.805 423.59C140.814 423.261 140.823 422.936 140.836 422.607Z" clip-rule="evenodd"/><path fill="#FFDEB1" fill-rule="evenodd" d="M161.564 218.164C162.535 209.638 161.279 191.818 161.195 190.735C160.663 183.89 163.87 156.862 169.932 159.352C180.101 151.301 193.645 149.524 206.309 148.674C232.616 146.91 260.601 150.96 280.914 168.666C290.96 177.861 300.74 191.234 299.954 205.158C309.081 218.357 321.948 236.463 310.576 251.893C306.711 256.823 300.567 258.659 295.711 262.392C285.944 270.272 279.816 281.579 269.955 289.411C243.832 312.888 199.475 317.792 173.81 291.089C153.963 271.75 157.172 242.819 160.663 218.164C163.01 201.589 159.672 234.798 161.564 218.164Z" clip-rule="evenodd"/><path fill="#000" fill-rule="evenodd" d="M241.451 112.519C234.416 111.099 227.191 110.215 220.007 110.481L219.453 110.503C214.047 110.719 207.201 111.197 202.485 114.341C202.214 114.068 201.778 113.929 201.382 114.117C195.778 116.793 189.614 118.727 183.713 120.649C177.84 122.561 171.746 123.824 165.59 124.333C163.274 124.524 161.292 127.026 162.758 129.269C163.107 129.804 163.447 130.344 163.785 130.885C163.219 130.826 162.653 130.765 162.087 130.708C160.224 130.52 158.363 132.508 158.474 134.322C158.543 135.463 158.666 136.59 158.848 137.704C158.139 137.689 157.433 137.796 156.752 138.084C153.301 139.541 153.541 143.651 153.8 146.779C154.157 151.119 155.78 155.715 158.794 158.963C156.544 161.301 154.951 164.092 154.001 167.406C153.312 169.827 152.928 172.405 153.118 174.925L153.178 175.679C153.412 178.414 153.878 181.441 155.844 183.408C156.854 184.422 158.098 184.792 159.284 184.675C158.567 190.976 158.107 197.314 157.674 203.629L157.471 206.647C156.506 221.242 155.781 235.933 155.971 250.552C156.147 264.214 158.846 277.475 167.225 288.568C174.856 298.669 185.812 306.116 198.206 308.947C204.886 310.475 211.705 310.583 218.465 309.609C221.742 309.136 225.041 308.41 228.151 307.265C231.594 305.994 234.069 304.123 236.385 301.32C237.481 299.99 236.954 297.159 234.772 297.425C231.472 297.825 228.46 298.308 225.296 299.284L224.843 299.427C221.692 300.436 218.429 301.189 215.135 301.509C208.388 302.163 201.537 301.505 195.074 299.458C184.55 296.123 175.486 288.69 169.677 279.35C162.781 268.28 162.001 255.713 162.101 242.984C162.207 229.016 162.662 215.04 163.403 201.086L163.529 198.761C163.922 191.58 164.3 184.395 164.633 177.21C164.737 174.957 164.895 172.685 165.179 170.436C167.779 168.912 170.109 166.811 171.628 164.22C174.679 165.482 177.888 166.392 180.841 167.118C187.68 168.8 194.78 169.209 201.741 168.155C203.619 168.931 205.534 169.613 207.479 170.2C208.004 170.433 208.53 170.662 209.055 170.886C213.742 172.892 218.497 174.591 223.446 175.835L224.661 176.139C227.265 176.781 230.094 177.413 232.865 177.611C233.321 177.787 233.812 177.936 234.349 178.067C236.872 178.68 239.491 178.874 242.078 178.657C244.598 178.445 246.418 175.899 245.03 173.514C244.016 171.774 242.993 170.039 241.961 168.308C245.553 169.804 249.262 171.049 253.003 172.103C256.78 173.167 260.611 174.064 264.447 174.889C266.497 175.326 268.557 175.714 270.603 176.151C272.068 176.462 274.317 176.624 275.511 177.589C276.832 178.648 277.206 181.118 277.706 182.642C278.364 184.621 278.982 186.608 279.545 188.619C280.667 192.63 281.586 196.701 282.299 200.812C283.011 204.927 283.489 209.083 283.755 213.252C284.02 217.417 283.904 221.609 284.331 225.756C284.562 227.956 286.923 229.087 288.667 227.55C288.872 227.37 289.078 227.187 289.282 227.003L289.586 226.725C291.079 225.373 292.525 223.94 293.719 222.326C293.936 222.028 294.143 221.717 294.337 221.402C294.368 221.402 294.395 221.393 294.427 221.37L294.758 221.121C298.403 218.408 304.493 214.87 308.047 219.378C309.18 220.814 309.76 222.643 310.241 224.407L311.086 227.564C311.632 229.625 312.146 231.698 312.447 233.806C313.127 238.53 312.785 243.975 309.535 247.762C308.237 249.276 306.447 250.358 304.451 250.642C303.337 250.795 302.238 250.606 301.133 250.466C300.011 250.326 298.93 250.552 297.807 250.444C296.022 250.268 295.243 252.404 295.91 253.748C296.27 254.469 296.694 255.091 297.176 255.618C296.789 255.952 296.419 256.312 296.063 256.691C295.008 257.029 294.062 257.755 293.354 258.715C292.782 259.49 292.485 260.333 292.435 261.221C292.372 261.442 292.318 261.667 292.268 261.897L291.301 263.467C291.089 263.811 290.877 264.151 290.664 264.485C288.203 268.361 285.472 271.642 282.078 274.735C278.81 277.71 275.264 280.373 272.194 283.565L271.832 283.944C268.97 286.96 265.954 290.61 267.074 294.996C267.362 296.123 268.936 296.934 269.963 296.172C273.266 293.72 274.93 289.835 277.733 286.86C280.618 283.795 283.813 281.041 286.706 277.984C289.443 275.1 291.602 271.832 293.228 268.235C293.878 268.951 294.824 269.461 296.135 269.659C298.389 269.997 300.489 268.676 301.472 266.725C302.103 267.004 302.747 267.257 303.396 267.455C306.813 268.501 308.962 264.701 307.673 261.893C306.984 260.387 306.123 259.08 305.055 257.98C308.395 257.52 311.793 255.794 313.988 253.639C319.495 248.226 320.252 240.09 319.013 232.855C318.355 229.02 317.22 225.139 315.745 221.537C315.489 220.911 315.213 220.279 314.912 219.657C315.079 219.653 315.25 219.581 315.358 219.441C316.354 218.08 317.566 216.966 318.306 215.443C318.986 214.046 319.743 212.63 320.28 211.174C321.384 208.195 321.924 204.832 322.285 201.682C323.029 195.231 322.741 188.822 321.753 182.412C320.073 171.495 316.013 161.047 310.031 151.88C310.357 151.709 310.669 151.502 310.96 151.258L311.104 151.133L311.337 150.922C313.044 149.377 312.896 146.482 311.337 144.917L310.844 144.423C310.221 143.804 309.683 143.313 308.676 142.638C308.527 142.539 308.375 142.445 308.221 142.357C308.749 141.383 308.932 140.243 308.564 138.986C307.284 134.607 300.983 134.762 296.99 136.672C292.571 132.728 287.672 129.305 282.362 126.532C269.715 119.933 255.414 115.331 241.451 112.519ZM306.826 227.866C304.464 227.095 301.327 228.713 299.204 229.687C296.514 230.922 294.224 232.747 292.007 234.676C290.902 235.641 290.705 237.219 290.979 238.566C291.006 238.702 291.033 238.841 291.065 238.981C291.358 240.419 292.963 241.55 294.382 241.51C297.352 241.429 298.767 238.864 300.449 236.691C300.647 237.043 300.894 237.367 301.201 237.611L301.409 237.773C302.106 238.304 302.876 238.729 303.797 238.688C304.451 238.657 305.077 238.49 305.654 238.188C307.097 237.426 307.732 235.56 307.34 234.041C307.097 233.085 306.538 232.337 305.808 231.819L306.08 231.633C306.662 231.227 307.193 230.8 307.607 230.169L307.701 230.02H307.665C308.115 229.245 307.822 228.19 306.826 227.866Z" clip-rule="evenodd"/><path fill="#000" fill-rule="evenodd" d="M195.587 273.226C198.907 274.188 202.471 274.274 205.855 273.281C208.925 272.38 212.077 270.397 214.336 267.774C216.343 265.443 217.643 262.611 217.592 259.587C217.586 259.242 217.462 258.954 217.272 258.73C217.068 258.489 216.782 258.324 216.477 258.252C216.162 258.178 215.829 258.205 215.546 258.333C215.29 258.45 215.07 258.647 214.933 258.937C214.586 259.393 214.24 259.842 213.893 260.279C211.101 263.727 208.398 266.303 204.2 267.227C201.922 267.728 199.647 267.506 197.56 266.741C195.326 265.922 193.306 264.482 191.724 262.639C191.008 261.806 190.164 261.466 189.338 261.461C188.403 261.454 187.478 261.889 186.781 262.584C186.096 263.267 185.638 264.196 185.596 265.167C185.56 266.019 185.838 266.909 186.577 267.704C189.013 270.32 192.171 272.237 195.587 273.226ZM195.689 230.048C192.286 232.117 187.1 236.941 190.761 242.071C195.071 246.593 201.276 241.408 204.334 239.063C207.169 237.245 210.355 241.92 207.724 244.042C185.629 260.402 176.662 230.589 193.968 227.615C195.873 227.288 196.581 229.408 195.689 230.048ZM227.527 220.944C228.621 220.245 229.907 220.004 231.334 220.653C232.448 221.16 234.403 222.85 235.763 225.071C236.694 226.591 237.353 228.373 237.216 230.23C237.184 230.661 237.343 230.979 237.595 231.214C237.793 231.4 238.08 231.536 238.417 231.579C238.703 231.615 239.023 231.583 239.283 231.501C239.778 231.347 240.04 231.026 240.138 230.764C241.091 228.234 240.681 225.411 239.613 222.864C238.173 219.427 235.556 216.548 233.842 215.62C230.909 214.031 227.449 213.958 224.512 215.577C222.012 216.955 220.448 219.179 218.893 221.446C218.563 221.928 218.235 222.406 217.896 222.876C217.216 223.818 217.149 224.752 217.412 225.553C217.703 226.441 218.447 227.19 219.376 227.581C220.235 227.944 221.232 227.995 222.115 227.622C222.86 227.308 223.544 226.695 223.977 225.655C224.706 223.904 225.92 221.972 227.527 220.944V220.944ZM171.97 224.841C172.72 225.231 173.306 225.349 174.137 225.1C174.596 224.962 175.05 224.697 175.406 224.341C175.758 223.989 176.013 223.551 176.112 223.064C176.355 221.864 177.011 220.741 177.947 220.009C178.746 219.383 179.756 219.051 180.875 219.238C182.083 219.44 183.234 220.215 184.027 221.128C184.292 221.434 184.5 221.781 184.709 222.126C185.099 222.771 185.479 223.37 186.017 223.844C186.222 224.024 186.529 224.149 186.827 224.149C186.948 224.149 187.071 224.129 187.188 224.093C188.391 222.886 188.622 221.97 188.583 221.062C188.543 220.11 188.167 219.145 187.561 218.246C186.137 216.135 183.435 214.405 181.612 214.013C179.115 213.476 176.635 214.121 174.647 215.516C172.601 216.951 171.085 219.179 170.612 221.69C170.499 222.295 170.547 222.948 170.777 223.514C171.002 224.067 171.394 224.541 171.97 224.841ZM222.019 198.444C223.518 199.904 225.292 200.13 227.086 200.331C228.083 200.444 228.879 200.535 229.662 200.712C231.815 201.198 233.943 201.93 235.884 202.984C237.914 204.086 240.125 205.415 241.716 207.118C242.094 207.523 242.451 207.948 242.808 208.374C243.134 208.762 243.448 209.136 243.778 209.497C244.158 209.911 244.519 210.345 244.877 210.778C245.099 211.144 245.143 211.234 245.187 211.327C245.255 211.468 245.333 211.625 245.422 211.794C245.544 212.025 245.688 212.278 245.838 212.507C246.087 212.926 246.221 213.042 246.337 213.094C246.529 213.179 246.711 213.221 246.888 213.198C247.053 213.177 247.209 213.098 247.363 212.967C248.133 212.317 248.36 211.25 248.336 210.118C248.301 208.399 247.667 206.496 247.083 205.327C245.724 202.609 243.84 199.783 241.575 197.755C238.989 195.439 236.161 193.686 232.912 192.478C230.894 191.728 228.556 191.038 226.357 191.125C224.773 191.188 223.262 191.659 222.014 192.834C221.247 193.556 220.88 194.582 220.88 195.607C220.88 196.653 221.262 197.706 222.019 198.444ZM168.923 211.815C169.018 211.972 169.15 212.079 169.297 212.144C169.45 212.212 169.622 212.231 169.787 212.203C169.951 212.176 170.107 212.101 170.231 211.988C170.349 211.879 170.44 211.734 170.48 211.557C171.475 207.187 173.407 203.935 177.53 201.839C179.559 200.807 181.891 200.152 184.099 199.629C184.741 199.477 185.419 199.379 186.102 199.279C188.242 198.967 190.397 198.609 191.792 196.879C192.633 195.837 192.985 194.504 192.786 193.286C192.598 192.138 191.928 191.086 190.709 190.455C187.674 188.886 183.904 190.426 180.839 191.738C180.612 191.835 180.389 191.93 180.171 192.022C177.174 193.287 174.441 194.957 172.194 197.345C170.412 199.24 168.76 202.04 168.095 204.921C167.542 207.318 167.672 209.765 168.923 211.815Z" clip-rule="evenodd"/></svg>